<svg xmlns="http://www.w3.org/2000/svg" width="400" height="120" viewBox="0 0 400 120" role="img" aria-labelledby="title">
  <title id="title">StackQuotes logo</title>
  <defs>
    <linearGradient id="iconGradient" x1="20%" y1="15%" x2="80%" y2="85%">
      <stop offset="0%" stop-color="#1eb4ff" />
      <stop offset="100%" stop-color="#0284ff" />
    </linearGradient>
    <linearGradient id="wordmarkGradient" x1="0%" y1="50%" x2="100%" y2="50%">
      <stop offset="0%" stop-color="#0ca6ff" />
      <stop offset="100%" stop-color="#0277ff" />
    </linearGradient>
    <pattern id="grid" width="10" height="10" patternUnits="userSpaceOnUse">
      <rect width="10" height="10" fill="#ffffff" />
      <path d="M0 0h10M0 0v10" stroke="#c8e9ff" stroke-width=".6" />
    </pattern>
  </defs>
  <g transform="translate(20 12)">
    <g transform="translate(0 0)">
      <polygon points="72 0 132 35 132 102 72 137 12 102 12 35" fill="url(#iconGradient)" />
      <polygon points="72 12 121 40 121 97 72 125 23 97 23 40" fill="url(#grid)" opacity="0.55" />
      <path
        d="M95.5 32H48.2l-20 20.2v16.1h39l7.2 7.3v6.8l-7.2 7.2H28.2v21.6L48.4 133h47.1l20.4-20.2V96.7h-39l-7.2-7.2V82.7l7.2-7.2h39V54.1L95.5 32Z"
        fill="#ffffff"
        opacity="0.96"
      />
    </g>
  </g>
  <text x="180" y="80" font-size="46" font-weight="600" fill="url(#wordmarkGradient)" font-family="'Inter', 'Segoe UI', 'Poppins', sans-serif" letter-spacing="-1.4">
    StackQuotes
  </text>
</svg>
