<svg xmlns="http://www.w3.org/2000/svg" width="640" height="256" viewBox="0 0 640 256" role="img" aria-labelledby="title">
  <title id="title">StackQuotes logo</title>
  <defs>
    <linearGradient id="hexGradient" x1="20%" y1="0%" x2="80%" y2="100%">
      <stop offset="0%" stop-color="#1b6ad6" />
      <stop offset="100%" stop-color="#2f83e1" />
    </linearGradient>
  </defs>
  <g transform="translate(32 28) scale(1.1)">
    <polygon points="120 0 214 54 214 162 120 216 26 162 26 54" fill="url(#hexGradient)" />
    <g transform="translate(60 54)" fill="#0f172a">
      <path d="M55.6 102c-26.3 0-44.8-16-44.8-37.5 0-19.5 13.9-31.4 36.7-34.5l1.4-.2c9.5-1.3 13.4-3 13.4-7.5 0-5.4-5.8-8.8-15.5-8.8-9.8 0-19.1 4.3-24.5 11.3l-17.5-14.4C17.5 1.8 33.6-6 50.3-6c26 0 42.8 13.5 42.8 34.3 0 19.6-14.8 30.8-39.6 33.8l-1.7.2C42 63 38 65 38 69.7c0 5.4 5.3 9 14.3 9 10.5 0 20.1-4.7 25-12.2l17.9 14.7C85.4 94.6 71.1 102 55.6 102Z" />
      <path d="M129.4 102c-11.1 0-21.3-4.4-28.1-12.2l11.9-12.1c4.6 5 10.9 7.7 17.6 7.7 8.8 0 15-4.7 15-11.3 0-6.8-6.3-11.2-15.9-11.2h-7.7V49h7.7c8.7 0 14.7-4.6 14.7-11.2 0-6.4-5.7-10.6-14.4-10.6-7 0-13.5 2.9-17.6 7.7L101.3 23c6.7-7.8 16.9-12.2 28.1-12.2 20.2 0 34.6 11.5 34.6 28.4 0 11.4-7.7 20.5-19.7 24.1 12.8 3.6 21.1 13.1 21.1 25.2 0 17.1-15.4 29.5-36 29.5Z" />
    </g>
  </g>
  <text x="330" y="160" font-size="92" font-weight="600" fill="#2f83e1" font-family="'Inter', 'Segoe UI', sans-serif" letter-spacing="-2">
    StackQuotes
  </text>
</svg>
